<svg width="58" height="50" viewBox="0 0 58 50" fill="none" xmlns="http://www.w3.org/2000/svg">
<path d="M17.75 0.625C8.44438 0.625 0.875 8.19438 0.875 17.5V19.375C0.875 22.4687 3.40625 25 6.5 25C7.94375 25 9.25625 24.4375 10.25 23.5375C11.2437 24.4375 12.5563 25 14 25H15.875C17.3187 25 18.6313 24.4375 19.625 23.5375C20.6187 24.4375 21.9313 25 23.375 25H25.25C26.6937 25 28.0063 24.4375 29 23.5375C29.9937 24.4375 31.3063 25 32.75 25H34.625C36.0687 25 37.3813 24.4375 38.375 23.5375C39.3687 24.4375 40.6813 25 42.125 25H44C45.4437 25 46.7563 24.4375 47.75 23.5375C48.7437 24.4375 50.0563 25 51.5 25C54.5937 25 57.125 22.4687 57.125 19.375V17.5C57.125 8.19438 49.5556 0.625 40.25 0.625H17.75ZM17.75 4.375H40.25C45.4963 4.375 50.0244 7.47625 52.1225 11.9369C51.9163 11.9144 51.7119 11.875 51.5 11.875C50.3562 11.875 49.3063 12.2125 48.425 12.7937C47.8218 11.9311 47.0193 11.2267 46.0858 10.7404C45.1522 10.254 44.1151 10 43.0625 10C41.6375 10 40.325 10.4687 39.2562 11.2375C38.6681 10.2891 37.8484 9.50586 36.8742 8.96139C35.9001 8.41692 34.8035 8.1291 33.6875 8.125C31.85 8.125 30.2 8.89375 29 10.1125C28.3905 9.48566 27.6618 8.98694 26.8569 8.64563C26.0519 8.30433 25.1868 8.12732 24.3125 8.125C21.9688 8.125 19.9062 9.38125 18.7437 11.2375C17.675 10.4687 16.3625 10 14.9375 10C12.725 10 10.7562 11.1062 9.575 12.7937C8.69375 12.2125 7.64375 11.875 6.5 11.875C6.28813 11.875 6.08375 11.9125 5.8775 11.9369C7.9775 7.47625 12.5037 4.375 17.75 4.375ZM24.3125 11.875C25.8687 11.875 27.125 13.1313 27.125 14.6875V19.375C27.125 20.4063 26.2813 21.25 25.25 21.25H23.375C22.3437 21.25 21.5 20.4063 21.5 19.375V14.6875C21.5 13.1313 22.7563 11.875 24.3125 11.875ZM33.6875 11.875C35.2437 11.875 36.5 13.1313 36.5 14.6875V19.375C36.5 20.4063 35.6563 21.25 34.625 21.25H32.75C31.7187 21.25 30.875 20.4063 30.875 19.375V14.6875C30.875 13.1313 32.1313 11.875 33.6875 11.875ZM14.9375 13.75C16.4937 13.75 17.75 15.0063 17.75 16.5625V19.375C17.75 20.4063 16.9063 21.25 15.875 21.25H14C12.9687 21.25 12.125 20.4063 12.125 19.375V16.5625C12.125 15.0063 13.3813 13.75 14.9375 13.75ZM43.0625 13.75C44.6187 13.75 45.875 15.0063 45.875 16.5625V19.375C45.875 20.4063 45.0313 21.25 44 21.25H42.125C41.0937 21.25 40.25 20.4063 40.25 19.375V16.5625C40.25 15.0063 41.5063 13.75 43.0625 13.75ZM6.5 15.625C7.53125 15.625 8.375 16.4687 8.375 17.5V19.375C8.375 20.4063 7.53125 21.25 6.5 21.25C5.46875 21.25 4.625 20.4063 4.625 19.375V17.5C4.625 16.4687 5.46875 15.625 6.5 15.625ZM51.5 15.625C52.5313 15.625 53.375 16.4687 53.375 17.5V19.375C53.375 20.4063 52.5313 21.25 51.5 21.25C50.4687 21.25 49.625 20.4063 49.625 19.375V17.5C49.625 16.4687 50.4687 15.625 51.5 15.625ZM6.5 28.75C3.40625 28.75 0.875 31.2813 0.875 34.375V36.25C0.875 43.4856 6.76438 49.375 14 49.375H44C51.2356 49.375 57.125 43.4856 57.125 36.25V34.375C57.125 31.2813 54.5937 28.75 51.5 28.75C50.0563 28.75 48.7437 29.3125 47.75 30.2125C46.7563 29.3125 45.4437 28.75 44 28.75H42.125C40.6813 28.75 39.3687 29.3125 38.375 30.2125C37.3813 29.3125 36.0687 28.75 34.625 28.75H32.75C31.3063 28.75 29.9937 29.3125 29 30.2125C28.0063 29.3125 26.6937 28.75 25.25 28.75H23.375C21.9313 28.75 20.6187 29.3125 19.625 30.2125C18.6313 29.3125 17.3187 28.75 15.875 28.75H14C12.5563 28.75 11.2437 29.3125 10.25 30.2125C9.25625 29.3125 7.94375 28.75 6.5 28.75ZM6.5 32.5C7.53125 32.5 8.375 33.3437 8.375 34.375C8.375 35.4063 7.53125 36.25 6.5 36.25C5.46875 36.25 4.625 35.4063 4.625 34.375C4.625 33.3437 5.46875 32.5 6.5 32.5ZM14 32.5H15.875C16.9063 32.5 17.75 33.3437 17.75 34.375V36.25C17.75 37.2813 16.9063 38.125 15.875 38.125C13.8125 38.125 12.125 36.4375 12.125 34.375C12.125 33.3437 12.9687 32.5 14 32.5ZM23.375 32.5H25.25C26.2813 32.5 27.125 33.3437 27.125 34.375V36.25C27.125 37.2813 26.2813 38.125 25.25 38.125H23.375C22.3437 38.125 21.5 37.2813 21.5 36.25V34.375C21.5 33.3437 22.3437 32.5 23.375 32.5ZM32.75 32.5H34.625C35.6563 32.5 36.5 33.3437 36.5 34.375V36.25C36.5 37.2813 35.6563 38.125 34.625 38.125H32.75C31.7187 38.125 30.875 37.2813 30.875 36.25V34.375C30.875 33.3437 31.7187 32.5 32.75 32.5ZM42.125 32.5H44C45.0313 32.5 45.875 33.3437 45.875 34.375C45.875 36.4375 44.1875 38.125 42.125 38.125C41.0937 38.125 40.25 37.2813 40.25 36.25V34.375C40.25 33.3437 41.0937 32.5 42.125 32.5ZM51.5 32.5C52.5313 32.5 53.375 33.3437 53.375 34.375C53.375 35.4063 52.5313 36.25 51.5 36.25C50.4687 36.25 49.625 35.4063 49.625 34.375C49.625 33.3437 50.4687 32.5 51.5 32.5ZM9.875 38.8375C11.2625 40.675 13.4188 41.875 15.875 41.875C17.3187 41.875 18.6313 41.3125 19.625 40.4125C20.6187 41.3125 21.9313 41.875 23.375 41.875H25.25C26.6937 41.875 28.0063 41.3125 29 40.4125C29.9937 41.3125 31.3063 41.875 32.75 41.875H34.625C36.0687 41.875 37.3813 41.3125 38.375 40.4125C39.3687 41.3125 40.6813 41.875 42.125 41.875C44.5812 41.875 46.7375 40.675 48.125 38.8375C49.0625 39.5687 50.225 40 51.5 40C51.8913 40 52.2725 39.9606 52.6438 39.8819C51.9265 41.5824 50.7242 43.034 49.1869 44.0554C47.6497 45.0768 45.8456 45.6227 44 45.625H14C12.1544 45.6227 10.3503 45.0768 8.81306 44.0554C7.27581 43.034 6.0735 41.5824 5.35625 39.8819C5.7275 39.9594 6.10875 39.9988 6.5 40C7.775 40 8.9375 39.5687 9.875 38.8375Z" fill="#000D44"/>
</svg>
