<svg width="56" height="56" viewBox="0 0 56 56" fill="none" xmlns="http://www.w3.org/2000/svg">
<g clip-path="url(#clip0_22_1106)">
<path d="M16.1 26.6C15.75 26.95 14.35 28 10.5 28C14.35 28 15.75 29.05 16.1 29.4C16.8 28.7 18.2 28 21.35 28C18.2 28 16.8 27.3 16.1 26.6Z" fill="black"/>
<path d="M28 0C12.6 0 0 12.6 0 28C0 43.4 12.6 56 28 56C43.4 56 56 43.4 56 28C56 12.6 43.4 0 28 0ZM45.85 40.6C42.35 40.6 40.95 37.8 40.25 35C39.55 38.15 38.15 42 33.95 42C30.1 42 28.7 38.15 28 35C27.3 38.5 25.9 42 22.05 42C18.2 42 16.45 38.15 15.75 35C15.05 37.8 13.65 40.6 10.15 40.6C3.15 40.6 3.5 30.1 3.5 30.1C3.5 30.1 4.2 28 9.45 28C4.2 28 3.5 26.25 3.5 26.25C3.5 26.25 3.15 15.75 10.15 15.75C13.65 15.75 15.05 18.55 15.75 21.35C16.45 18.2 17.85 14.35 22.05 14.35C25.9 14 27.3 17.85 28 21C28.7 17.5 30.1 14 33.95 14C37.8 14 39.55 17.85 40.25 21C40.95 18.2 42.35 15.4 45.85 15.4C52.85 15.4 52.5 25.9 52.5 25.9C52.5 25.9 51.45 28 46.2 28C42 28 40.6 26.95 39.9 26.6C39.2 27.3 37.45 28 34.3 28C30.1 28 28.7 27.3 28 26.6C27.65 26.95 25.9 28 22.4 28C25.9 28 27.3 29.05 28 29.4C28.7 28.7 30.1 28 34.3 28C37.8 28 39.2 28.7 40.25 29.4C40.25 29.05 42 28 46.2 28C51.45 28 52.5 30.1 52.5 30.1C52.5 30.1 52.85 40.6 45.85 40.6Z" fill="#1F5FFF"/>
</g>
<defs>
<clipPath id="clip0_22_1106">
<rect width="56" height="56" fill="white"/>
</clipPath>
</defs>
</svg>
