<svg width="63" height="57" viewBox="0 0 63 57" fill="none" xmlns="http://www.w3.org/2000/svg">
<path d="M48.3989 23.1562L50.2515 12.2657C50.3293 11.807 50.3687 11.3439 50.3687 10.8807C50.3687 5.85497 45.8652 1.78125 40.3113 1.78125H38.7964C36.1218 1.78125 33.5565 2.74224 31.6645 4.45312C29.7726 2.74224 27.2083 1.78125 24.5327 1.78125H23.0179C17.463 1.78125 12.9604 5.85497 12.9595 10.8807C12.9595 11.3448 12.9989 11.8079 13.0766 12.2657L14.9302 23.1562" fill="#DCDCDC"/>
<path d="M50.3686 10.8807C50.3686 5.85497 45.8651 1.78125 40.3112 1.78125H38.7963C36.1217 1.78125 33.5564 2.74224 31.6644 4.45312C29.9448 2.89809 27.6679 1.97095 25.2591 1.81332C20.0381 2.14463 15.9134 6.07228 15.9134 10.8798C15.9134 11.3439 15.9529 11.807 16.0306 12.2648L17.8832 23.1562H48.3989L50.2514 12.2657C50.3292 11.807 50.3686 11.3439 50.3686 10.8807Z" fill="#EEEEEE"/>
<path d="M39.5393 27.0866C44.8116 26.3367 48.3988 24.8583 48.3988 23.1563C48.3988 20.6973 40.9066 18.7032 31.6643 18.7032C22.4221 18.7032 14.93 20.6973 14.93 23.1563C14.93 24.8583 18.517 26.3367 23.7893 27.0866" fill="#C8C8C8"/>
<path d="M17.8831 10.6875H15.9143C15.9143 7.24969 19.0053 4.45312 22.805 4.45312V6.23437C20.0911 6.23437 17.8831 8.23202 17.8831 10.6875Z" fill="white"/>
<path d="M15.2038 22.3743C16.9106 24.3515 23.5513 25.8282 31.5001 25.8282C39.7373 25.8282 46.5699 24.2428 47.9608 22.157C46.2539 20.1798 39.6133 18.7032 31.6645 18.7032C23.4273 18.7032 16.5946 20.2884 15.2038 22.3743Z" fill="#959595"/>
<path d="M42.4925 32.0625C40.6478 30.9501 39.5393 29.0763 39.5393 27.0696V25.8282C39.5393 24.3524 38.2173 23.1562 36.5863 23.1562H26.7425C25.1113 23.1562 23.7893 24.3524 23.7893 25.8282V27.0696C23.7893 29.0763 22.681 30.9492 20.8363 32.0625" fill="#FFD992"/>
<path d="M39.5394 27.0696V25.8282C39.5394 24.3524 38.2173 23.1562 36.5863 23.1562H29.5313C27.9002 23.1562 26.5781 24.3524 26.5781 25.8282V27.0696C26.5781 29.0763 25.4697 30.9492 23.625 32.0625H42.4925C40.6478 30.9492 39.5394 29.0763 39.5394 27.0696Z" fill="#FFE1B2"/>
<path d="M31.6643 32.0625H47.4143L44.1098 38.7894C43.6924 39.639 43.4768 40.5591 43.4768 41.4889C43.4768 45.8325 42.3586 50.1164 40.2116 54.0021C39.8003 54.7476 38.9576 55.2187 38.0353 55.2187C36.6916 55.2187 35.6018 54.2328 35.6018 53.0171C35.6018 49.745 35.2061 46.4826 34.4216 43.2879L34.0603 41.8175C33.8113 40.8013 32.8151 40.0782 31.6643 40.0782C30.5136 40.0782 29.5184 40.8013 29.2684 41.8166L28.9071 43.287C28.1226 46.4817 27.7268 49.7441 27.7268 53.0163C27.7268 54.2319 26.6371 55.2179 25.2935 55.2179C24.3721 55.2179 23.5295 54.7467 23.117 54.0003C20.9701 50.1155 19.8518 45.8307 19.8518 41.4871C19.8518 40.5573 19.6363 39.6372 19.2189 38.7876L15.9143 32.0625H31.6643Z" fill="#DCDCDC"/>
<path d="M31.6643 32.0625H19.1401L22.0066 37.8987C22.425 38.7484 22.6406 39.6675 22.6406 40.5982C22.6406 44.9418 23.7588 49.2266 25.9058 53.1115C26.2021 53.6468 26.7238 54.0324 27.3331 54.2124C27.5802 53.8677 27.7268 53.4588 27.7268 53.018C27.7268 49.7459 28.1226 46.4835 28.9071 43.2888L29.2684 41.8184C29.5185 40.8013 30.5146 40.0782 31.6643 40.0782C32.8141 40.0782 33.8103 40.8013 34.0603 41.8166L34.4216 43.287C35.2061 46.4817 35.6018 49.7441 35.6018 53.0163C35.6018 54.2319 36.6916 55.2179 38.0353 55.2179C38.9566 55.2179 39.7993 54.7467 40.2117 54.0003C42.3586 50.1155 43.4768 45.8307 43.4768 41.4871C43.4768 40.5573 43.6925 39.6372 44.1098 38.7876L47.4143 32.0625H31.6643Z" fill="#EEEEEE"/>
<path d="M49.3646 23.2908L49.3714 23.2917L51.224 12.4002C51.3096 11.8961 51.3529 11.384 51.3519 10.8798C51.3519 5.37225 46.3986 0.890625 40.3112 0.890625H38.7963C36.1571 0.890625 33.6588 1.72068 31.6644 3.24455C29.6711 1.72068 27.1728 0.890625 24.5336 0.890625H23.0187C16.9304 0.890625 11.9769 5.37225 11.9759 10.8807C11.9759 11.3866 12.0193 11.8988 12.1049 12.402L13.9576 23.2925L13.9644 23.2917C14.1446 26.0098 19.5813 27.3048 22.7372 27.8267C22.5176 29.1609 21.7213 30.3614 20.5086 31.1718H15.9154C15.5827 31.1718 15.2717 31.3242 15.0906 31.5771C14.9094 31.83 14.8809 32.1489 15.0167 32.4241L18.3213 39.151C18.6845 39.8911 18.8696 40.6775 18.8696 41.4888C18.8696 45.9474 20.0351 50.412 22.2381 54.4002C22.8199 55.4547 23.9913 56.1093 25.2936 56.1093C27.1787 56.1093 28.7114 54.7218 28.7114 53.0171C28.7114 49.8162 29.1011 46.6073 29.8679 43.4812L30.2292 42.0099C30.3799 41.3971 30.9704 40.9688 31.6644 40.9688C32.3594 40.9688 32.9491 41.3971 33.0997 42.0099L33.4609 43.4812C34.2278 46.6064 34.6176 49.8144 34.6176 53.0171C34.6176 54.7227 36.1512 56.1093 38.0354 56.1093C39.3386 56.1093 40.5101 55.4547 41.0928 54.4002C43.2968 50.412 44.4614 45.9483 44.4614 41.4888C44.4614 40.6784 44.6464 39.892 45.0106 39.151L48.3142 32.4241C48.4491 32.148 48.4214 31.83 48.2394 31.5771C48.0573 31.3242 47.7472 31.1718 47.4144 31.1718H42.8214C41.6086 30.3614 40.8123 29.1609 40.5927 27.8267C43.7486 27.3048 49.1844 26.0098 49.3646 23.2908ZM23.0187 2.67188H24.5336C26.9641 2.67188 29.2498 3.52776 30.9686 5.0828C31.3534 5.43103 31.9756 5.43014 32.3604 5.0828C34.0801 3.52776 36.3649 2.67188 38.7963 2.67188H40.3112C45.3138 2.67188 49.3842 6.35461 49.3842 10.8816C49.3842 11.2958 49.3488 11.7171 49.2789 12.1303L47.8023 20.8113C44.8581 18.8349 38.2332 17.8125 31.6644 17.8125C25.0957 17.8125 18.4709 18.8349 15.5266 20.8113L14.0501 12.1303C13.9802 11.7171 13.9447 11.2958 13.9447 10.8807C13.9457 6.35461 18.0161 2.67188 23.0187 2.67188ZM43.2112 38.4269C42.7347 39.3968 42.4926 40.4264 42.4926 41.488C42.4926 45.6721 41.3999 49.8608 39.3318 53.6031C39.0847 54.0503 38.5886 54.3282 38.0354 54.3282C37.2361 54.3282 36.5864 53.7394 36.5864 53.0171C36.5864 49.6844 36.1818 46.3464 35.3824 43.0947L35.0212 41.6234C34.6688 40.1895 33.2887 39.1875 31.6644 39.1875C30.0402 39.1875 28.6601 40.1895 28.3077 41.6234L27.9464 43.0947C27.1472 46.3473 26.7426 49.6853 26.7426 53.0171C26.7426 53.7403 26.0919 54.3282 25.2936 54.3282C24.7414 54.3282 24.2452 54.0503 23.9981 53.6031C21.9299 49.8608 20.8373 45.6721 20.8373 41.488C20.8373 40.4264 20.5952 39.3959 20.1197 38.4269L17.4294 32.9532H45.9005L43.2112 38.4269ZM23.2677 31.1718C24.2285 30.0016 24.7739 28.573 24.7739 27.0705V25.8282C24.7739 24.8457 25.6568 24.0468 26.7426 24.0468H36.5864C37.6721 24.0468 38.5551 24.8457 38.5551 25.8282V27.0705C38.5551 28.5739 39.1004 30.0016 40.0612 31.1718H23.2677ZM40.5239 26.0285V25.8282C40.5239 23.8634 38.7579 22.2657 36.5864 22.2657H26.7426C24.5711 22.2657 22.8051 23.8634 22.8051 25.8282V26.0285C17.8114 25.1771 15.9144 23.8438 15.9144 23.1563C15.9144 21.9129 21.3236 19.5938 31.6644 19.5938C42.0053 19.5938 47.4144 21.9129 47.4144 23.1563C47.4144 23.8438 45.5176 25.1771 40.5239 26.0285Z" fill="#000D44"/>
<path d="M22.805 6.23437V4.45312C19.0053 4.45312 15.9143 7.24969 15.9143 10.6875H17.8831C17.8831 8.23202 20.0911 6.23437 22.805 6.23437Z" fill="black"/>
</svg>
