<svg width="70" height="71" viewBox="0 0 70 71" fill="none" xmlns="http://www.w3.org/2000/svg">
<g clip-path="url(#clip0_1_469)">
<mask id="mask0_1_469" style="mask-type:luminance" maskUnits="userSpaceOnUse" x="0" y="0" width="70" height="71">
<path d="M70 0.5H0V70.5H70V0.5Z" fill="white"/>
</mask>
<g mask="url(#mask0_1_469)">
<path d="M52.6828 20.754L52.6845 24.7455C52.6849 25.5009 52.0729 26.1137 51.3176 26.1142L46.9406 26.1169C46.1853 26.1173 45.5725 25.5054 45.572 24.75L45.5703 20.7531L52.6828 20.754Z" fill="#BCF1F8"/>
<path d="M52.6846 24.7458C52.6846 25.5004 52.0734 26.1143 51.3174 26.1143H47.2158C47.9719 26.1143 48.583 25.5004 48.583 24.7458L48.5816 22.0127L52.6832 22.01L52.6846 24.7458Z" fill="#A0F0F2"/>
<path d="M62.8906 61.9551V39.1008C62.8906 36.8549 61.5326 34.8319 59.4539 33.9811C57.91 33.349 56.1632 33.4473 54.6999 34.2486L51.6619 35.9121C50.8472 36.3582 49.9331 36.592 49.0042 36.592H48.8865C47.9577 36.592 47.0436 36.3582 46.2288 35.9121L43.1908 34.2486C41.7275 33.4475 39.9808 33.3492 38.4368 33.9811C36.358 34.8319 35 36.8549 35 39.1008V61.9551H62.8906Z" fill="#FCF1F2"/>
<path d="M62.8905 39.1012V61.9551H58.789V39.1012C58.789 36.8549 57.4313 34.8315 55.3519 33.9811C55.3368 33.9756 55.3231 33.9688 55.3081 33.9633C55.9644 33.7008 56.6603 33.5696 57.3575 33.5696C58.0685 33.5696 58.7808 33.7063 59.4534 33.9811C61.5329 34.8315 62.8905 36.8549 62.8905 39.1012Z" fill="#F4E5E0"/>
<path d="M35 60.5879V39.1008C35 36.8549 33.642 34.8319 31.5633 33.9811C30.0193 33.349 28.2726 33.4473 26.8093 34.2486L23.7713 35.9121C22.9566 36.3582 22.0425 36.592 21.1136 36.592H20.9959C20.067 36.592 19.1529 36.3582 18.3382 35.9121L15.3002 34.2486C13.8369 33.4475 12.0902 33.3492 10.5462 33.9811C8.4674 34.8319 7.10938 36.8549 7.10938 39.1008V60.5879H35Z" fill="#FCF1F2"/>
<path d="M34.9999 39.1012V60.5879H30.8983V39.1012C30.8983 36.8549 29.5407 34.8315 27.4612 33.9811C27.4462 33.9756 27.4325 33.9688 27.4175 33.9633C28.0737 33.7008 28.7696 33.5696 29.4669 33.5696C30.1778 33.5696 30.8901 33.7063 31.5628 33.9811C33.6423 34.8315 34.9999 36.8549 34.9999 39.1012Z" fill="#F4E5E0"/>
<path d="M61.4714 35.4016C61.2157 35.9143 60.4323 37.492 59.597 39.1709C58.3282 41.7249 55.7319 43.2875 52.9565 43.2875C52.504 43.2875 52.046 43.2465 51.588 43.1604C48.077 42.5041 45.5327 39.4389 45.5327 35.8678V35.5301L46.2286 35.9116C47.0435 36.3586 47.9581 36.5924 48.8864 36.5924H49.004C49.9323 36.5924 50.847 36.3586 51.6618 35.9116L54.6997 34.2491C55.5241 33.7979 56.4401 33.5696 57.3575 33.5696C58.0685 33.5696 58.7808 33.7063 59.4534 33.9811C60.2409 34.3038 60.9259 34.7946 61.4714 35.4016Z" fill="#E6D6D1"/>
<path d="M61.4714 35.4016C61.2157 35.9143 60.4323 37.492 59.597 39.1709C59.3687 39.6303 59.0966 40.0582 58.789 40.4506V39.1012C58.789 36.8549 57.4313 34.8315 55.3519 33.9811C55.3368 33.9756 55.3231 33.9688 55.3081 33.9633C55.9644 33.7008 56.6603 33.5696 57.3575 33.5696C58.0685 33.5696 58.7808 33.7063 59.4534 33.9811C60.2409 34.3038 60.9259 34.7946 61.4714 35.4016Z" fill="#D3C6C3"/>
<path d="M41.367 40.0965C41.367 41.223 41.0238 42.2922 40.4195 43.185C39.8139 44.0777 38.9484 44.7928 37.9012 45.2098L35 46.3664V39.1012C35 37.9773 35.3391 36.9109 35.9393 36.0182C36.5381 35.1254 37.398 34.4062 38.4371 33.9811C38.608 33.9113 38.7816 33.8498 38.958 33.7979L40.8311 37.7285C41.1838 38.4682 41.367 39.2775 41.367 40.0965Z" fill="#E6D6D1"/>
<path d="M66.2402 68.791H3.75977C2.24957 68.791 1.02539 67.5668 1.02539 66.0566V52.3848C1.02539 50.8746 2.24957 49.6504 3.75977 49.6504H7.10938L8.47998 53.0487C9.31055 55.1249 11.3214 56.4863 13.5576 56.4863H28.5631C30.7993 56.4863 32.8103 55.1249 33.6407 53.0487L35 49.6504L36.3593 53.0487C37.1898 55.1249 39.2007 56.4863 41.4369 56.4863H56.4536C58.6898 56.4863 60.7008 55.1249 61.5312 53.0487L62.8906 49.6504H66.2402C67.7504 49.6504 68.9746 50.8746 68.9746 52.3848V66.0566C68.9746 67.5668 67.7504 68.791 66.2402 68.791Z" fill="#1F5FFF"/>
<path d="M68.9746 52.3848V66.0566C68.9746 67.5674 67.751 68.791 66.2402 68.791H62.1387C63.6494 68.791 64.873 67.5674 64.873 66.0566V52.3848C64.873 51.1215 64.0172 50.0578 62.8523 49.7447L62.8906 49.6504H66.2402C67.751 49.6504 68.9746 50.874 68.9746 52.3848Z" fill="#1F5FFF"/>
<path d="M44.1444 9.04711L30.759 7.64355C28.5906 7.41797 26.5385 6.54844 24.8678 5.14844L21.7406 2.52822C21.4945 2.32205 21.1836 2.20898 20.8626 2.20898H8.76652C8.12804 2.20898 7.83806 3.00646 8.32752 3.41648L19.3265 12.6338C22.709 15.4693 26.9172 17.1373 31.3236 17.3902L44.2437 18.1306L44.1444 9.04711Z" fill="#BCF1F8"/>
<path d="M36.9769 17.7143L35.1188 17.6076L31.3235 17.3903C26.9171 17.1373 22.7089 15.4694 19.3265 12.6338L16.8724 10.5776L16.4731 10.2426L18.1397 8.25061C18.6251 7.67229 19.4878 7.5971 20.0661 8.08108L21.5577 9.33206C24.2606 11.5961 27.6226 12.9291 31.1431 13.1315L35.6452 13.3899C36.3589 13.4309 36.9208 14.0147 36.9345 14.7297L36.9769 17.7143Z" fill="#00DDF9"/>
<path d="M43.5088 6.1494L43.5178 20.6479C43.5182 21.4032 44.131 22.0153 44.8865 22.0148L53.3668 22.0096C54.1221 22.0092 54.7342 21.3964 54.7337 20.6409L54.7246 6.14243C54.7242 5.38706 54.1115 4.77497 53.356 4.77551L44.8757 4.78071C44.1203 4.78112 43.5084 5.39389 43.5088 6.1494Z" fill="#736572"/>
<path d="M54.7339 20.6414C54.7339 21.396 54.1214 22.0085 53.3667 22.0099H52.6831L48.5815 22.0126V22.0099H49.2651C49.9815 22.0085 50.5708 21.4562 50.6282 20.7535C50.631 20.7166 50.6323 20.6796 50.6323 20.6414L50.6228 6.14233C50.6228 5.41499 50.0554 4.82163 49.339 4.77788L53.3558 4.77515C54.1118 4.77515 54.7243 5.38628 54.7243 6.14233L54.7339 20.6414Z" fill="#615260"/>
<path d="M66.2402 48.6256H63.916V39.1014C63.916 36.4277 62.3171 34.0456 59.8423 33.0324C58.0037 32.2801 55.95 32.3957 54.2075 33.3496L51.1695 35.0131C49.8136 35.7575 48.0773 35.7575 46.7214 35.0131L43.6834 33.3496C41.9409 32.3954 39.8869 32.2796 38.0484 33.0326C36.7612 33.5595 35.7118 34.4574 35.0001 35.5735C34.2885 34.4573 33.2391 33.5593 31.9519 33.0324C30.1133 32.2801 28.0595 32.3957 26.317 33.3496L23.279 35.0131C21.9231 35.7575 20.1868 35.7575 18.831 35.0131L15.7929 33.3496C14.0504 32.3954 11.9965 32.2796 10.1579 33.0326C7.68291 34.0456 6.08398 36.4277 6.08398 39.1014V48.6256H3.75977C1.68656 48.6256 0 50.3122 0 52.3854V66.0572C0 68.1304 1.68656 69.817 3.75977 69.817H7.10938C7.67566 69.817 8.13477 69.358 8.13477 68.7916C8.13477 68.2252 7.67566 67.7662 7.10938 67.7662H3.75977C2.81736 67.7662 2.05078 66.9996 2.05078 66.0572V52.3854C2.05078 51.443 2.81736 50.6764 3.75977 50.6764H6.4173L7.52801 53.43C8.5199 55.91 10.8868 57.5123 13.5577 57.5123H28.5631C31.2341 57.5123 33.601 55.9098 34.5929 53.43L35.0001 52.412L35.4074 53.43C36.3993 55.91 38.7662 57.5123 41.4371 57.5123H56.4539C59.1248 57.5123 61.4917 55.9098 62.4836 53.43L63.5852 50.6764H66.2402C67.1826 50.6764 67.9492 51.443 67.9492 52.3854V66.0572C67.9492 66.9996 67.1826 67.7662 66.2402 67.7662H11.8945C11.3282 67.7662 10.8691 68.2252 10.8691 68.7916C10.8691 69.358 11.3282 69.817 11.8945 69.817H66.2402C68.3134 69.817 70 68.1304 70 66.0572V52.3854C70 50.3122 68.3134 48.6256 66.2402 48.6256ZM48.8865 37.618H49.0041C50.102 37.618 51.1912 37.3393 52.1542 36.8119L55.1923 35.1484C56.3901 34.4926 57.8017 34.4134 59.0654 34.9303C59.4899 35.1041 59.8769 35.3367 60.2189 35.6163L58.6787 38.7142C57.412 41.2622 54.5738 42.6762 51.7772 42.1535C49.2149 41.6744 47.2484 39.7035 46.7074 37.2413C47.4059 37.4874 48.1437 37.618 48.8865 37.618ZM38.4463 35.1086L39.9053 38.1699C40.1904 38.7682 40.3412 39.4347 40.3412 40.0974C40.3412 41.9417 39.2343 43.5749 37.5211 44.2583L36.0254 44.8549V39.1016C36.0254 37.4048 36.9637 35.8807 38.4463 35.1086ZM32.6886 52.6685C32.01 54.3652 30.3905 55.4617 28.563 55.4617H13.5576C11.7301 55.4617 10.1108 54.3652 9.43086 52.6658L8.13477 49.4521V39.1015C8.13477 37.2641 9.23385 35.6269 10.9345 34.9306C12.1982 34.4134 13.6099 34.493 14.8077 35.1486L17.8458 36.812C19.8032 37.8913 22.3062 37.8913 24.2636 36.812L27.3016 35.1486C28.4994 34.4927 29.9111 34.4136 31.1747 34.9305C32.8755 35.6269 33.9746 37.264 33.9746 39.1015V49.4537L32.6886 52.6685ZM60.5793 52.6685C59.9006 54.3652 58.2812 55.4617 56.4536 55.4617H41.437C39.6095 55.4617 37.9902 54.3652 37.3114 52.6685L36.0254 49.4537V47.0625L38.2808 46.1629C40.7783 45.1669 42.392 42.7859 42.392 40.0972C42.392 39.1312 42.1723 38.1595 41.7566 37.2875L40.473 34.5943C41.2397 34.5836 42.0049 34.7687 42.6984 35.1483L44.5133 36.1421C44.6404 40.0874 47.4964 43.4395 51.4002 44.1694C51.9139 44.2654 52.4281 44.312 52.9379 44.312C56.0957 44.3119 59.0748 42.5245 60.5151 39.6272L61.5725 37.5004C61.7621 38.0017 61.8652 38.5419 61.8652 39.1014V49.4536L60.5793 52.6685Z" fill="#000D44"/>
<path d="M37.9599 28.2306C37.5474 27.8425 36.8985 27.8622 36.5104 28.2744C36.1223 28.6869 36.1419 29.3357 36.5543 29.7239L37.702 30.8041C38.1137 31.1917 38.7627 31.1732 39.1515 30.7603C39.5397 30.3479 39.52 29.699 39.1077 29.3108L37.9599 28.2306Z" fill="#000D44"/>
<path d="M44.2234 29.9258C44.6036 29.5061 44.5716 28.8577 44.152 28.4774L40.5154 25.1825C40.0957 24.802 39.4472 24.834 39.067 25.2537C38.6868 25.6734 38.7188 26.3217 39.1384 26.7021L42.775 29.997C43.1308 30.3161 43.8481 30.3044 44.2234 29.9258Z" fill="#000D44"/>
<path d="M7.6689 4.20289L18.6678 13.4201C22.195 16.377 26.6687 18.1508 31.2648 18.4144L42.4914 19.0592L42.4924 20.6489C42.4931 21.8522 43.3874 22.8475 44.5455 23.0135L44.5466 24.7509C44.5474 26.07 45.6208 27.1427 46.94 27.1427H46.9414L48.1044 27.142L48.1077 32.3592C48.108 32.9253 48.5671 33.3839 49.1331 33.3839C49.6994 33.3835 50.1589 32.9242 50.1585 32.3578L50.1552 27.1406L51.3181 27.1399C51.9574 27.1395 52.5583 26.8903 53.01 26.4379C53.4618 25.9855 53.7103 25.3845 53.7099 24.7452L53.7088 23.0081C54.2182 22.9354 54.6891 22.7038 55.0592 22.3333C55.5109 21.881 55.7594 21.2799 55.759 20.6402L55.751 13.367C55.7504 12.801 55.2915 12.3427 54.7256 12.3427H54.7245C54.1582 12.3434 53.6996 12.8029 53.7002 13.3692L53.7083 20.642C53.6733 20.8782 53.6024 20.9496 53.366 20.9846L44.8859 20.9899C44.6971 20.9899 44.5434 20.8365 44.5433 20.6477L44.5343 6.14922C44.5341 5.96041 44.6877 5.80674 44.8764 5.8066L53.3567 5.80141C53.5927 5.83627 53.6642 5.90736 53.6992 6.14334L53.7002 8.5835C53.7005 9.14979 54.1594 9.60848 54.7256 9.60848C55.2919 9.6082 55.7512 9.14896 55.751 8.58268L55.75 6.14225C55.7496 5.50295 55.5004 4.90221 55.048 4.45049C54.596 3.99904 53.9956 3.75062 53.357 3.75062H53.3552L44.8749 3.75582C43.5554 3.75678 42.4824 4.83098 42.4832 6.15059L42.4843 7.83564L30.8649 6.62418C28.8926 6.41896 27.0465 5.63707 25.5261 4.36299L22.3994 1.74305C21.9694 1.38252 21.4238 1.18414 20.8625 1.18414H8.76661C7.21608 1.12631 6.44362 3.25174 7.6689 4.20289ZM51.317 25.0893L46.9403 25.0921C46.7515 25.0921 46.5978 24.9386 46.5976 24.7498L46.5966 23.0397L51.6583 23.0366L51.6594 24.7468C51.6592 24.971 51.5247 25.092 51.317 25.0893ZM19.9852 11.8485L17.9166 10.115L18.9263 8.91039C19.1047 8.75207 19.2045 8.74291 19.4078 8.86787L20.8997 10.1182C23.7518 12.5084 27.3687 13.9425 31.0842 14.1555L35.5867 14.414C35.7642 14.4243 35.9057 14.5714 35.909 14.749L35.9433 16.6291L31.3824 16.3672C27.2241 16.1285 23.1765 14.5238 19.9852 11.8485ZM20.8625 3.23492C20.9426 3.23492 21.0206 3.26322 21.082 3.31477L24.2091 5.93484C26.044 7.47252 28.2723 8.41615 30.6525 8.66402L42.4857 9.89777L42.4901 17.0051L37.9964 16.747L37.9592 14.7114C37.9365 13.4678 36.946 12.4379 35.7042 12.3666L31.2016 12.1081C27.9239 11.92 24.7332 10.6551 22.2169 8.54631L20.725 7.29602C20.2351 6.88545 19.6148 6.69062 18.9781 6.74627C18.3416 6.80232 17.7648 7.10297 17.3545 7.59283L16.3448 8.7976L9.70669 3.23492H20.8625Z" fill="#000D44"/>
<path d="M58.7389 30.7604C59.1277 31.1733 59.7767 31.1919 60.1884 30.8041L61.3362 29.7239C61.7485 29.3358 61.7682 28.6869 61.3801 28.2744C60.9919 27.8622 60.3429 27.8424 59.9306 28.2307L58.7828 29.3109C58.3705 29.6992 58.3508 30.348 58.7389 30.7604Z" fill="#000D44"/>
<path d="M53.6672 29.9258C54.0484 30.3463 54.6971 30.3766 55.1156 29.997L58.7522 26.7021C59.1719 26.3219 59.2039 25.6736 58.8236 25.2537C58.4433 24.8341 57.7949 24.8021 57.3752 25.1825L53.7386 28.4774C53.3188 28.8576 53.2869 29.5061 53.6672 29.9258Z" fill="#000D44"/>
</g>
</g>
<defs>
<clipPath id="clip0_1_469">
<rect width="70" height="70" fill="white" transform="translate(0 0.5)"/>
</clipPath>
</defs>
</svg>
