<svg width="60" height="61" viewBox="0 0 60 61" fill="none" xmlns="http://www.w3.org/2000/svg">
<g clip-path="url(#clip0_1_973)">
<path d="M33.75 47.375C42.0342 47.375 48.75 40.6592 48.75 32.375C48.75 24.0908 42.0342 17.375 33.75 17.375C25.4658 17.375 18.75 24.0908 18.75 32.375C18.75 40.6592 25.4658 47.375 33.75 47.375Z" fill="#788094"/>
<path d="M30 48.3124C17.4272 48.3124 5.97656 41.66 0.115313 30.95C-0.0384375 30.6696 -0.0384375 30.3304 0.115313 30.05C5.97656 19.34 17.4272 12.6875 30 12.6875C42.5728 12.6875 54.0234 19.34 59.8846 30.05C60.0384 30.3304 60.0384 30.6696 59.8846 30.95C54.0234 41.66 42.5728 48.3124 30 48.3124ZM2.01094 30.5C7.61532 40.3438 18.2906 46.4376 30 46.4376C41.7094 46.4376 52.3846 40.3438 57.9882 30.5C52.3846 20.6562 41.7094 14.5625 30 14.5625C18.2906 14.5625 7.61532 20.6562 2.01094 30.5Z" fill="#1F5FFF"/>
<path d="M12.3544 24.003C12.0647 24.003 11.7806 23.87 11.5969 23.6186C11.2912 23.2006 11.3822 22.6146 11.8003 22.309L12.2297 22.0006C12.6534 21.7024 13.2375 21.8036 13.5365 22.2264C13.8347 22.6502 13.7334 23.2342 13.3106 23.5334L12.9075 23.8222C12.7397 23.945 12.5456 24.003 12.3544 24.003Z" fill="#1F5FFF"/>
<path d="M5.30056 31.4376C5.12524 31.4376 4.94806 31.3888 4.79056 31.2856C4.3565 31.0034 4.23274 30.4232 4.51588 29.989C4.85806 29.4632 5.21524 28.9504 5.58838 28.4498C5.9615 27.949 6.35056 27.4626 6.75274 26.989C7.15588 26.5156 7.57306 26.0554 8.0043 25.611C8.43462 25.1656 8.87994 24.7344 9.33744 24.319C9.7218 23.9704 10.3143 23.9994 10.6621 24.382C11.0109 24.7654 10.9827 25.3588 10.5993 25.7066C10.1709 26.0966 9.75462 26.4998 9.3515 26.917C8.94744 27.3332 8.55744 27.7634 8.18056 28.206C7.80462 28.6484 7.44088 29.104 7.09212 29.572C6.74338 30.0398 6.40868 30.5198 6.089 31.012C5.90806 31.2876 5.60806 31.4376 5.30056 31.4376Z" fill="#1F5FFF"/>
<path d="M30 47.375C20.6954 47.375 13.125 39.8046 13.125 30.5C13.125 21.1954 20.6954 13.625 30 13.625C39.3046 13.625 46.875 21.1954 46.875 30.5C46.875 39.8046 39.3046 47.375 30 47.375ZM30 15.5C21.7294 15.5 15 22.2294 15 30.5C15 38.7706 21.7294 45.5 30 45.5C38.2706 45.5 45 38.7706 45 30.5C45 22.2294 38.2706 15.5 30 15.5Z" fill="#1F5FFF"/>
<path d="M30 43.625C22.7626 43.625 16.875 37.7374 16.875 30.5C16.875 23.2626 22.7626 17.375 30 17.375C37.2374 17.375 43.125 23.2626 43.125 30.5C43.125 37.7374 37.2374 43.625 30 43.625ZM30 19.25C23.7966 19.25 18.75 24.2966 18.75 30.5C18.75 36.7034 23.7966 41.75 30 41.75C36.2034 41.75 41.25 36.7034 41.25 30.5C41.25 24.2966 36.2034 19.25 30 19.25Z" fill="#1F5FFF"/>
</g>
<defs>
<clipPath id="clip0_1_973">
<rect width="60" height="60" fill="white" transform="translate(0 0.5)"/>
</clipPath>
</defs>
</svg>
