<svg width="52" height="52" viewBox="0 0 52 52" fill="none" xmlns="http://www.w3.org/2000/svg">
<path d="M25.9997 6.49995C22.7778 4.74197 18.2508 2 13.9999 2C7.69993 2 2 5.74096 2 16.9998C2 31.6967 5.16796 42.2295 10.0129 48.6105C11.7319 50.8784 15.9228 50.1734 17.7138 47.9025C18.9078 46.3865 20.1698 43.5855 21.4998 39.4996C22.3758 37.1866 24.1757 34.9876 25.9997 34.9996C27.8057 34.9996 29.6297 37.2106 30.4997 39.4996C31.8296 43.5855 33.0916 46.3855 34.2856 47.8995C36.0766 50.1764 40.2856 50.8784 41.9865 48.6105C46.8315 42.2295 49.9994 31.6997 49.9994 16.9998C49.9994 5.77996 44.2755 2 37.9996 2C33.7306 2 29.2397 4.73297 25.9997 6.49995Z" stroke="#1F5FFF" stroke-width="4" stroke-linecap="round" stroke-linejoin="round"/>
<path d="M25.9997 6.49995L28.9997 13.9999L22.9998 19.9998L28.9997 25.9997" stroke="#1F5FFF" stroke-width="4" stroke-linecap="round" stroke-linejoin="round"/>
</svg>
