<svg width="70" height="71" viewBox="0 0 70 71" fill="none" xmlns="http://www.w3.org/2000/svg">
<path d="M35 9.25L3.28125 7.0625V15.8125L35 13.625H37.1875V9.25H35Z" fill="#788094"/>
<path d="M29.5377 54.0937H9.85017C6.64822 49.7871 4.23377 45.7486 4.38143 42.0625C4.44835 40.809 4.79571 39.5865 5.39793 38.4851C5.80624 37.7141 6.36444 37.0323 7.03976 36.4799C7.71508 35.9275 8.49393 35.5155 9.33061 35.2681C10.1673 35.0208 11.0449 34.943 11.9121 35.0394C12.7792 35.1357 13.6184 35.4043 14.3804 35.8294L16.5067 37.0107C17.4817 37.5523 18.5785 37.8365 19.6938 37.8365C20.809 37.8365 21.9059 37.5523 22.8808 37.0107L25.0072 35.8294C25.7692 35.4043 26.6083 35.1357 27.4755 35.0394C28.3426 34.943 29.2203 35.0208 30.057 35.2681C30.8936 35.5155 31.6725 35.9275 32.3478 36.4799C33.0231 37.0323 33.5813 37.7141 33.9896 38.4851C34.592 39.5865 34.9394 40.809 35.0064 42.0625C35.1541 45.7486 32.7396 49.7871 29.5377 54.0937Z" fill="#E8EDF1"/>
<path d="M60.1563 54.0937H40.4688C37.2669 49.7871 34.8524 45.7486 35.0001 42.0625C35.067 40.809 35.4144 39.5865 36.0166 38.4851C36.4249 37.7141 36.9831 37.0323 37.6584 36.4799C38.3337 35.9275 39.1126 35.5155 39.9493 35.2681C40.7859 35.0208 41.6636 34.943 42.5307 35.0394C43.3979 35.1357 44.2371 35.4043 44.999 35.8294L47.1254 37.0107C48.1003 37.5523 49.1972 37.8365 50.3124 37.8365C51.4277 37.8365 52.5246 37.5523 53.4995 37.0107L55.6259 35.8294C56.3878 35.4043 57.227 35.1357 58.0941 35.0394C58.9613 34.943 59.8389 35.0208 60.6756 35.2681C61.5123 35.5155 62.2911 35.9275 62.9665 36.4799C63.6418 37.0323 64.2 37.7141 64.6083 38.4851C65.2106 39.5865 65.5581 40.809 65.6251 42.0625C65.7727 45.7486 63.3583 49.7871 60.1563 54.0937Z" fill="#E8EDF1"/>
<path d="M7.65625 54.0938H62.3438C63.5041 54.0938 64.6169 54.5547 65.4373 55.3752C66.2578 56.1956 66.7188 57.3084 66.7188 58.4688V67.2188H3.28125V58.4688C3.28125 57.3084 3.74219 56.1956 4.56266 55.3752C5.38313 54.5547 6.49593 54.0938 7.65625 54.0938Z" fill="#1F5FFF"/>
<path d="M65.625 32.2188C64.2789 32.9884 63.1633 34.1043 62.394 35.4506C61.6246 36.7969 61.2297 38.3245 61.25 39.875C61.2703 38.3245 60.8754 36.7969 60.106 35.4506C59.3367 34.1043 58.2211 32.9884 56.875 32.2188C58.2211 31.4491 59.3367 30.3332 60.106 28.9869C60.8754 27.6406 61.2703 26.113 61.25 24.5625C61.2297 26.113 61.6246 27.6406 62.394 28.9869C63.1633 30.3332 64.2789 31.4491 65.625 32.2188Z" fill="#A4D4F4"/>
<path d="M13.125 50.8125C11.7789 51.5821 10.6633 52.698 9.89396 54.0443C9.12465 55.3906 8.72966 56.9183 8.75 58.4688C8.77034 56.9183 8.37535 55.3906 7.60603 54.0443C6.83672 52.698 5.72111 51.5821 4.375 50.8125C5.72111 50.0429 6.83672 48.927 7.60603 47.5807C8.37535 46.2344 8.77034 44.7067 8.75 43.1562C8.72966 44.7067 9.12465 46.2344 9.89396 47.5807C10.6633 48.927 11.7789 50.0429 13.125 50.8125Z" fill="#A4D4F4"/>
<path d="M41.5625 3.78125C43.303 3.78125 44.9722 4.47265 46.2029 5.70336C47.4336 6.93407 48.125 8.60327 48.125 10.3438V16.9062H35V10.3438C35 8.60327 35.6914 6.93407 36.9221 5.70336C38.1528 4.47265 39.822 3.78125 41.5625 3.78125Z" fill="#1F5FFF"/>
<path d="M39.375 16.9062H43.75V21.2812H39.375V16.9062Z" fill="#99A2A7"/>
<path d="M39.375 21.2812H43.75C44.3302 21.2812 44.8866 21.5117 45.2968 21.922C45.707 22.3322 45.9375 22.8886 45.9375 23.4688V30.0312H37.1875V23.4688C37.1875 22.8886 37.418 22.3322 37.8282 21.922C38.2384 21.5117 38.7948 21.2812 39.375 21.2812Z" fill="#E8EDF1"/>
<path d="M37.1875 25.6562H45.9375V30.0312H37.1875V25.6562Z" fill="#D9DBDD"/>
<path d="M17.5 8.04277V14.8322L3.28125 15.8125V7.0625L17.5 8.04277Z" fill="#1F5FFF"/>
<path d="M2.5349 6.26288C2.42526 6.36523 2.33784 6.48904 2.27808 6.6266C2.21831 6.76417 2.18748 6.91256 2.1875 7.06255V15.8126C2.1875 16.1026 2.30273 16.3808 2.50785 16.5859C2.71297 16.7911 2.99117 16.9063 3.28125 16.9063C3.30627 16.9063 3.33129 16.9055 3.35645 16.9037L33.9062 14.7969V16.9063C33.9062 17.1964 34.0215 17.4746 34.2266 17.6797C34.4317 17.8848 34.7099 18.0001 35 18.0001H38.2812V20.3757C37.642 20.6025 37.0886 21.0216 36.697 21.5753C36.3053 22.1291 36.0946 22.7905 36.0938 23.4688V30.0313C36.0938 30.3214 36.209 30.5996 36.4141 30.8047C36.6192 31.0098 36.8974 31.1251 37.1875 31.1251H45.9375C46.2276 31.1251 46.5058 31.0098 46.7109 30.8047C46.916 30.5996 47.0312 30.3214 47.0312 30.0313V23.4688C47.0304 22.7905 46.8197 22.1291 46.428 21.5753C46.0364 21.0216 45.483 20.6025 44.8438 20.3757V18.0001H48.125C48.4151 18.0001 48.6933 17.8848 48.8984 17.6797C49.1035 17.4746 49.2188 17.1964 49.2188 16.9063V10.3438C49.2187 8.50972 48.5602 6.73661 47.3631 5.34706C46.1661 3.9575 44.51 3.04383 42.6961 2.77227C40.8822 2.50071 39.0312 2.88932 37.4796 3.86738C35.9281 4.84544 34.7792 6.34797 34.242 8.10161L3.35645 5.9714C3.20681 5.96076 3.0566 5.98117 2.91523 6.03132C2.77385 6.08148 2.64437 6.16032 2.5349 6.26288ZM39.375 22.3751H43.75C44.04 22.3754 44.318 22.4907 44.523 22.6958C44.7281 22.9008 44.8434 23.1788 44.8438 23.4688V24.5626H38.2812V23.4688C38.2816 23.1788 38.3969 22.9008 38.602 22.6958C38.807 22.4907 39.085 22.3754 39.375 22.3751ZM38.2812 28.9376V26.7501H44.8438V28.9376H38.2812ZM42.6562 20.1875H40.4688V18.0001H42.6562V20.1875ZM36.0938 10.3438C36.0938 8.8934 36.6699 7.5024 37.6955 6.47681C38.7211 5.45122 40.1121 4.87505 41.5625 4.87505C43.0129 4.87505 44.4039 5.45122 45.4295 6.47681C46.4551 7.5024 47.0312 8.8934 47.0312 10.3438V15.8126H36.0938V10.3438ZM33.9062 10.3438V12.604L18.5938 13.6602V9.21491L33.908 10.2712C33.9079 10.2954 33.9062 10.3195 33.9062 10.3438ZM4.375 8.23423L16.4062 9.06411V13.811L4.375 14.6409V8.23423Z" fill="#000D44"/>
<path d="M62.3438 53H62.298C64.8145 49.4114 66.8644 45.6616 66.7178 42.0187C66.6439 40.6031 66.254 39.2219 65.5767 37.9765C65.0891 37.047 64.4137 36.2289 63.5934 35.5741C64.2342 34.5921 65.0995 33.7767 66.1177 33.1952C66.2978 33.1035 66.4489 32.9639 66.5545 32.7916C66.6601 32.6194 66.7161 32.4214 66.7162 32.2194C66.7163 32.0173 66.6606 31.8192 66.5552 31.6469C66.4498 31.4746 66.2987 31.3347 66.1188 31.2429C65.9647 31.1638 62.3438 29.2544 62.3438 24.5625C62.3438 24.2724 62.2285 23.9942 62.0234 23.7891C61.8183 23.584 61.5401 23.4688 61.25 23.4688C60.9599 23.4688 60.6817 23.584 60.4766 23.7891C60.2715 23.9942 60.1562 24.2724 60.1562 24.5625C60.1562 29.2544 56.5353 31.1638 56.3858 31.2405C56.2052 31.3317 56.0533 31.4711 55.947 31.6433C55.8408 31.8155 55.7843 32.0138 55.7838 32.2162C55.7833 32.4185 55.8389 32.617 55.9443 32.7898C56.0498 32.9625 56.201 33.1026 56.3812 33.1946C56.7959 33.4235 57.1837 33.698 57.5374 34.013C56.6803 34.1591 55.8543 34.45 55.0948 34.8733L52.9684 36.0547C52.1569 36.509 51.2425 36.7475 50.3125 36.7475C49.3825 36.7475 48.4681 36.509 47.6566 36.0547L45.5302 34.8733C44.6408 34.3774 43.6613 34.0642 42.6492 33.9521C41.6371 33.8399 40.6128 33.931 39.6363 34.2201C38.6599 34.5092 37.7511 34.9904 36.9632 35.6355C36.1753 36.2807 35.5242 37.0766 35.0481 37.9768C35.0323 38.0069 35.0187 38.0371 35.0031 38.0673C34.9877 38.0371 34.9742 38.0069 34.9583 37.9768C34.4822 37.0766 33.8311 36.2806 33.0432 35.6355C32.2553 34.9904 31.3465 34.5092 30.3701 34.2201C29.3937 33.931 28.3694 33.8398 27.3573 33.952C26.3451 34.0642 25.3656 34.3774 24.4762 34.8733L22.3498 36.0547C21.5384 36.509 20.6239 36.7475 19.6939 36.7475C18.7639 36.7475 17.8495 36.509 17.038 36.0547L14.9115 34.8733C14.0221 34.3774 13.0426 34.0642 12.0305 33.9521C11.0184 33.8399 9.99414 33.9311 9.01776 34.2201C8.04137 34.5092 7.13257 34.9905 6.3447 35.6356C5.55682 36.2807 4.90575 37.0766 4.42969 37.9768C3.75241 39.2222 3.36253 40.6034 3.28863 42.0192C3.2066 44.0675 3.82457 46.3258 5.1707 48.9008C4.78208 49.2634 4.35048 49.577 3.88555 49.8347C3.7049 49.9259 3.55304 50.0653 3.44678 50.2375C3.34052 50.4097 3.28402 50.608 3.28354 50.8103C3.28305 51.0127 3.33861 51.2112 3.44405 51.3839C3.54949 51.5566 3.70069 51.6968 3.8809 51.7888C4.59518 52.1912 5.23421 52.7146 5.76953 53.3355C4.71963 53.7228 3.81353 54.4224 3.17314 55.3401C2.53274 56.2578 2.18877 57.3497 2.1875 58.4688V67.2188C2.1875 67.5088 2.30273 67.787 2.50785 67.9921C2.71297 68.1973 2.99117 68.3125 3.28125 68.3125H66.7188C67.0088 68.3125 67.287 68.1973 67.4921 67.9921C67.6973 67.787 67.8125 67.5088 67.8125 67.2188V58.4688C67.8109 57.0188 67.2342 55.6288 66.2089 54.6036C65.1837 53.5783 63.7937 53.0016 62.3438 53ZM61.25 29.1973C61.8586 30.3568 62.6916 31.3839 63.7006 32.2188C62.6916 33.0536 61.8586 34.0807 61.25 35.2402C60.6414 34.0807 59.8084 33.0536 58.7994 32.2188C59.8084 31.3839 60.6414 30.3568 61.25 29.1973ZM36.0928 42.1063C36.1546 41.0153 36.4594 39.9519 36.9847 38.9937C37.3193 38.3532 37.7795 37.7866 38.3379 37.328C38.8964 36.8693 39.5415 36.5279 40.2348 36.3241C40.9352 36.1127 41.671 36.0445 42.3983 36.1238C43.1256 36.203 43.8295 36.4281 44.4679 36.7854L46.5944 37.9668C47.7304 38.6029 49.0106 38.9368 50.3125 38.9368C51.6144 38.9368 52.8946 38.6029 54.0306 37.9668L56.1572 36.7852C57.0921 36.262 58.1609 36.0271 59.229 36.11C59.8527 37.266 60.1718 38.5616 60.1562 39.875C60.1562 40.1651 60.2715 40.4433 60.4766 40.6484C60.6817 40.8535 60.9599 40.9688 61.25 40.9688C61.5401 40.9688 61.8183 40.8535 62.0234 40.6484C62.2285 40.4433 62.3438 40.1651 62.3438 39.875C62.3406 39.1246 62.4413 38.3774 62.6428 37.6546C63.0428 38.0465 63.3795 38.4983 63.6408 38.9937C64.1663 39.9518 64.4711 41.0152 64.5329 42.1063C64.6112 44.0626 64.0752 46.8888 59.6038 53H41.0208C38.4527 49.5021 35.9557 45.5308 36.0928 42.1063ZM38.3268 53H31.6796C32.999 51.1186 34.1898 49.1928 35.0031 47.2614C35.8165 49.1928 37.0074 51.1186 38.3268 53ZM5.47422 42.1063C5.53604 41.0152 5.84083 39.9518 6.36631 38.9937C6.70083 38.3532 7.16103 37.7867 7.71943 37.328C8.27782 36.8693 8.92294 36.5279 9.61625 36.3241C10.3167 36.1127 11.0525 36.0445 11.7799 36.1237C12.5072 36.2029 13.2111 36.4279 13.8496 36.7852L15.9761 37.9665C17.1121 38.6026 18.3923 38.9366 19.6942 38.9366C20.9961 38.9366 22.2763 38.6026 23.4123 37.9665L25.5391 36.7852C26.1774 36.4276 26.8813 36.2025 27.6087 36.1233C28.336 36.0441 29.0719 36.1123 29.7723 36.324C30.4656 36.5277 31.1107 36.8691 31.6691 37.3277C32.2274 37.7864 32.6876 38.3529 33.0221 38.9934C33.5476 39.9516 33.8524 41.015 33.9142 42.106C33.992 44.0626 33.4559 46.8887 28.9844 53H12.0427C12.506 52.5218 13.0366 52.1138 13.6177 51.7889C13.7977 51.6973 13.9489 51.5576 14.0545 51.3854C14.1601 51.2132 14.2161 51.0151 14.2162 50.8131C14.2163 50.6111 14.1606 50.413 14.0552 50.2406C13.9497 50.0683 13.7987 49.9285 13.6188 49.8366C13.4647 49.7576 9.84375 47.8482 9.84375 43.1562C9.84375 42.8662 9.72852 42.588 9.5234 42.3829C9.31828 42.1777 9.04008 42.0625 8.75 42.0625C8.45992 42.0625 8.18172 42.1777 7.9766 42.3829C7.77148 42.588 7.65625 42.8662 7.65625 43.1562C7.67301 44.5063 7.33554 45.8372 6.67748 47.0161C5.81301 45.1616 5.41666 43.5441 5.47422 42.1063ZM8.75 47.791C9.3586 48.9506 10.1916 49.9776 11.2005 50.8125C10.1916 51.6474 9.3586 52.6744 8.75 53.834C8.1414 52.6744 7.30842 51.6474 6.29945 50.8125C7.30842 49.9776 8.1414 48.9506 8.75 47.791ZM65.625 66.125H4.375V58.4688C4.37599 57.7127 4.63762 56.98 5.11578 56.3944C5.59395 55.8087 6.25941 55.4058 7 55.2535C7.44264 56.2671 7.66627 57.3628 7.65625 58.4688C7.65625 58.7588 7.77148 59.037 7.9766 59.2421C8.18172 59.4473 8.45992 59.5625 8.75 59.5625C9.04008 59.5625 9.31828 59.4473 9.5234 59.2421C9.72852 59.037 9.84375 58.7588 9.84375 58.4688C9.83292 57.3384 10.0665 56.2191 10.5286 55.1875H62.3438C63.2137 55.1885 64.0477 55.5345 64.6628 56.1497C65.278 56.7648 65.624 57.5988 65.625 58.4688V66.125Z" fill="black"/>
<path d="M41.5634 47.5313C41.7664 47.5311 41.9654 47.4744 42.1381 47.3676C42.3108 47.2607 42.4503 47.1079 42.541 46.9263C42.6318 46.7446 42.6701 46.5413 42.6519 46.3391C42.6336 46.1369 42.5594 45.9437 42.4376 45.7813C41.4805 44.5058 41.0746 43.3613 41.2296 42.3801C41.3332 41.7452 41.6728 41.1728 42.1804 40.7776L42.1767 40.7801C42.4145 40.617 42.5783 40.3666 42.6324 40.0834C42.6866 39.8001 42.6266 39.5069 42.4657 39.2677C42.3048 39.0284 42.0558 38.8623 41.7731 38.8056C41.4904 38.749 41.1967 38.8062 40.9559 38.965L40.9543 38.9661L40.9468 38.9713C39.9562 39.6924 39.2861 40.7715 39.0791 41.9791C38.8041 43.5834 39.3454 45.3043 40.6877 47.0939C40.7895 47.2299 40.9217 47.3403 41.0738 47.4162C41.2258 47.4922 41.3934 47.5316 41.5634 47.5313Z" fill="#000D44"/>
</svg>
